<svg width="250" height="7" viewBox="0 0 57 7" fill="none" xmlns="http://www.w3.org/2000/svg">
<path opacity="0.8" d="M53.5 0L54.039 2.75813L56.8287 2.41844L54.3721 3.78337L55.5572 6.33156L53.5 4.417L51.4428 6.33156L52.6279 3.78337L50.1713 2.41844L52.961 2.75813L53.5 0Z" fill="#2F4553"/>
<path d="M5.19043 4V1.81738H6.66113V2.19824H5.65039V2.71094H6.5835V3.08447H5.65039V3.61914H6.66406V4H5.19043ZM8.54346 2.3623L7.9707 4H7.45801L6.88818 2.3623H7.36865L7.71289 3.53564H7.73047L8.06885 2.3623H8.54346ZM9.51465 4.03223C9.34961 4.03223 9.20654 3.99707 9.08545 3.92676C8.96533 3.85547 8.87256 3.75684 8.80713 3.63086C8.74268 3.50391 8.71045 3.35645 8.71045 3.18848C8.71045 3.01953 8.74268 2.87158 8.80713 2.74463C8.87256 2.61768 8.96533 2.51904 9.08545 2.44873C9.20654 2.37744 9.34961 2.3418 9.51465 2.3418C9.68066 2.3418 9.82373 2.37744 9.94385 2.44873C10.0649 2.51904 10.1577 2.61768 10.2222 2.74463C10.2876 2.87158 10.3203 3.01953 10.3203 3.18848C10.3203 3.35645 10.2876 3.50391 10.2222 3.63086C10.1577 3.75684 10.0649 3.85547 9.94385 3.92676C9.82373 3.99707 9.68066 4.03223 9.51465 4.03223ZM9.17188 3.18555C9.17188 3.32812 9.20068 3.4458 9.2583 3.53857C9.31592 3.63135 9.40186 3.67773 9.51611 3.67773C9.62939 3.67773 9.71484 3.63135 9.77246 3.53857C9.83008 3.4458 9.85889 3.32812 9.85889 3.18555C9.85889 3.04297 9.83008 2.92578 9.77246 2.83398C9.71484 2.74219 9.62939 2.69629 9.51611 2.69629C9.40186 2.69629 9.31592 2.74219 9.2583 2.83398C9.20068 2.92578 9.17188 3.04297 9.17188 3.18555ZM11.0732 1.81738V4H10.6191V1.81738H11.0732ZM12.4854 3.3042V2.3623H12.9395V4H12.5029V3.70264H12.4854C12.4492 3.79834 12.3882 3.87549 12.3022 3.93408C12.2173 3.99268 12.1133 4.02148 11.9902 4.02051C11.8252 4.02148 11.6914 3.96729 11.5889 3.85791C11.4873 3.74756 11.4365 3.59668 11.4365 3.40527V2.3623H11.8906V3.32617C11.8906 3.42188 11.9165 3.49805 11.9683 3.55469C12.02 3.61035 12.0889 3.6377 12.1748 3.63672C12.2559 3.6377 12.3276 3.60986 12.3901 3.55322C12.4536 3.49658 12.4854 3.41357 12.4854 3.3042ZM14.1729 2.3623V2.70508H13.8623V3.49609C13.8623 3.60254 13.9141 3.65576 14.0176 3.65576C14.0352 3.65576 14.0542 3.6543 14.0747 3.65137C14.0962 3.64844 14.1147 3.64502 14.1304 3.64111L14.2021 3.98096C14.1055 4.00928 14.0117 4.02344 13.9209 4.02344C13.7588 4.02344 13.6328 3.98242 13.543 3.90039C13.4541 3.81836 13.4097 3.70361 13.4097 3.55615V2.70508H13.187V2.3623H13.4097V1.97266H13.8623V2.3623H14.1729ZM14.4688 4V2.3623H14.9229V4H14.4688ZM14.6958 2.15283C14.6284 2.15283 14.5703 2.13037 14.5215 2.08545C14.4736 2.04053 14.4497 1.98633 14.4497 1.92285C14.4497 1.85938 14.4736 1.80566 14.5215 1.76172C14.5703 1.7168 14.6284 1.69434 14.6958 1.69434C14.7632 1.69434 14.8208 1.7168 14.8687 1.76172C14.9175 1.80566 14.9419 1.85938 14.9419 1.92285C14.9419 1.98633 14.9175 2.04053 14.8687 2.08545C14.8208 2.13037 14.7632 2.15283 14.6958 2.15283ZM16.0244 4.03223C15.8594 4.03223 15.7163 3.99707 15.5952 3.92676C15.4751 3.85547 15.3823 3.75684 15.3169 3.63086C15.2524 3.50391 15.2202 3.35645 15.2202 3.18848C15.2202 3.01953 15.2524 2.87158 15.3169 2.74463C15.3823 2.61768 15.4751 2.51904 15.5952 2.44873C15.7163 2.37744 15.8594 2.3418 16.0244 2.3418C16.1904 2.3418 16.3335 2.37744 16.4536 2.44873C16.5747 2.51904 16.6675 2.61768 16.7319 2.74463C16.7974 2.87158 16.8301 3.01953 16.8301 3.18848C16.8301 3.35645 16.7974 3.50391 16.7319 3.63086C16.6675 3.75684 16.5747 3.85547 16.4536 3.92676C16.3335 3.99707 16.1904 4.03223 16.0244 4.03223ZM15.6816 3.18555C15.6816 3.32812 15.7104 3.4458 15.7681 3.53857C15.8257 3.63135 15.9116 3.67773 16.0259 3.67773C16.1392 3.67773 16.2246 3.63135 16.2822 3.53857C16.3398 3.4458 16.3687 3.32812 16.3687 3.18555C16.3687 3.04297 16.3398 2.92578 16.2822 2.83398C16.2246 2.74219 16.1392 2.69629 16.0259 2.69629C15.9116 2.69629 15.8257 2.74219 15.7681 2.83398C15.7104 2.92578 15.6816 3.04297 15.6816 3.18555ZM17.583 3.05371V4H17.1289V2.3623H17.5757V2.65381H17.5918C17.6289 2.55811 17.688 2.48242 17.769 2.42676C17.8501 2.37012 17.9512 2.3418 18.0723 2.3418C18.2432 2.3418 18.3799 2.39697 18.4824 2.50732C18.5859 2.6167 18.6377 2.76709 18.6377 2.9585V4H18.1836V3.03906C18.1836 2.93848 18.1577 2.85986 18.106 2.80322C18.0552 2.74658 17.9844 2.71826 17.8936 2.71826C17.8018 2.71826 17.7271 2.74805 17.6694 2.80762C17.6118 2.86621 17.583 2.94824 17.583 3.05371Z" fill="#495168"/>
<g clip-path="url(#clip0_78_576)">
<mask id="mask0_78_576" style="mask-type:luminance" maskUnits="userSpaceOnUse" x="0" y="1" width="4" height="4">
<path d="M4 5H0V1H4V5Z" fill="white"/>
</mask>
<g mask="url(#mask0_78_576)">
<path d="M0.00189209 4.17668C0.00189209 4.63138 0.369759 5 0.823547 5H3.17211C3.62589 5 3.99376 4.63138 3.99376 4.17668V1.82332C3.99376 1.36862 3.62589 1 3.17211 1H0.823547C0.369759 1 0.00189209 1.36862 0.00189209 1.82332V4.17668Z" fill="white"/>
<path d="M0.831116 4.42709C2.15577 5.03036 3.11461 4.09176 3.16055 3.06522C1.73829 2.94851 1.23385 3.34384 0.831116 4.42709Z" fill="black"/>
<path d="M0.831116 1.57514C2.07703 0.971866 3.06951 1.84143 3.16055 2.90907C2.03848 3.02167 1.33228 2.88195 0.831116 1.57514Z" fill="black"/>
<path d="M2.84477 3.83123C2.84477 3.54521 2.76848 3.27727 2.6356 3.04632C1.60458 3.06687 1.17971 3.48932 0.831116 4.4271C1.71778 4.83147 2.44121 4.54381 2.83574 4.00218C2.84148 3.94629 2.84477 3.88876 2.84477 3.83123Z" fill="black"/>
<path d="M2.56837 2.94029C2.28539 2.52935 1.81213 2.25977 1.2757 2.25977C1.24454 2.25977 1.21336 2.26059 1.18219 2.26305C1.54063 2.76934 1.98765 2.93043 2.56837 2.94029Z" fill="black"/>
<path d="M2.56837 2.94029C2.28539 2.52935 1.81213 2.25977 1.2757 2.25977C1.24454 2.25977 1.21336 2.26059 1.18219 2.26305C1.54063 2.76934 1.98765 2.93043 2.56837 2.94029Z" fill="url(#paint0_radial_78_576)"/>
<path d="M2.84477 3.83123C2.84477 3.54521 2.76848 3.27727 2.6356 3.04632C1.60458 3.06687 1.17971 3.48932 0.831116 4.4271C1.71778 4.83147 2.44121 4.54381 2.83574 4.00218C2.84148 3.94629 2.84477 3.88876 2.84477 3.83123Z" fill="url(#paint1_radial_78_576)"/>
</g>
</g>
<defs>
<radialGradient id="paint0_radial_78_576" cx="0" cy="0" r="1" gradientUnits="userSpaceOnUse" gradientTransform="translate(1.7491 2.76373) rotate(-58.1162) scale(0.865838 3.53517)">
<stop/>
<stop offset="1" stop-color="white"/>
</radialGradient>
<radialGradient id="paint1_radial_78_576" cx="0" cy="0" r="1" gradientUnits="userSpaceOnUse" gradientTransform="translate(2.8447 3.20881) rotate(146.461) scale(2.55393 1.6908)">
<stop stop-color="#F2F2F2"/>
<stop offset="0.555279" stop-color="#262626"/>
<stop offset="1"/>
</radialGradient>
<clipPath id="clip0_78_576">
<rect width="4" height="4" fill="white" transform="matrix(1 0 0 -1 0 5)"/>
</clipPath>
</defs>
</svg>
